<svg width="14" height="12" viewBox="0 0 14 12" fill="none" xmlns="http://www.w3.org/2000/svg">
<path d="M12.6601 4.96722C12.7393 6.61765 11.2895 7.26465 10.5093 6.95212C9.38224 6.50098 9.6846 5.72608 9.39455 4.12061C9.1045 2.51514 7.98976 1.40041 6.33988 0.909668C7.54398 4.29881 5.67254 5.54787 4.6916 5.77103C3.68978 5.99901 2.68315 5.77049 2.56809 3.62666C1.39931 4.79009 0.675781 6.39984 0.675781 8.1787C0.675781 8.37564 0.68809 8.56936 0.705215 8.76202C2.34815 10.3857 4.6049 11.3896 7.09766 11.3896C9.59042 11.3896 11.8472 10.3857 13.4901 8.76202C13.5072 8.56936 13.5195 8.37564 13.5195 8.1787C13.5195 7.00831 13.207 5.91178 12.6601 4.96722Z" fill="#FFCC4D"/>
</svg>
