<svg width="22" height="26" viewBox="0 0 22 26" fill="none" xmlns="http://www.w3.org/2000/svg">
<path d="M21.5006 12.0636L14.6955 9.54463L12.1544 1.21622C12.0565 0.89504 11.7591 0.674805 11.4234 0.674805C11.0876 0.674805 10.7902 0.89504 10.6923 1.21622L8.15194 9.54463L1.34606 12.0636C1.04553 12.1752 0.846704 12.4605 0.846704 12.7809C0.846704 13.1005 1.04553 13.3873 1.34606 13.4982L8.14812 16.0163L10.69 24.5986C10.7864 24.9229 11.0846 25.1454 11.4234 25.1454C11.7614 25.1454 12.0604 24.9229 12.1567 24.5979L14.6986 16.0156L21.5014 13.4974C21.8004 13.3873 22 13.1013 22 12.7809C22 12.4612 21.8004 12.1752 21.5006 12.0636Z" fill="#FFAC33"/>
</svg>
